<?xml version="1.0" standalone="no"?>
<!DOCTYPE svg PUBLIC "-//W3C//DTD SVG 20010904//EN"
 "http://www.w3.org/TR/2001/REC-SVG-20010904/DTD/svg10.dtd">
<svg version="1.0" xmlns="http://www.w3.org/2000/svg"
 width="518.690000pt" height="400.000000pt" viewBox="0 0 568.690000 400.000000" preserveAspectRatio="xMidYMid meet">

<g transform="translate(30.000000, 450.000000) scale(0.100000,-0.100000)"
fill="#000000" stroke="none">
<path d="M1705 3860 c-325 -50 -780 -333 -1035 -645 -183 -224 -341 -531 -401
-780 -95 -395 68 -750 420 -919 114 -54 199 -70 355 -63 197 8 406 70 681 201
256 123 357 208 443 373 62 120 92 202 92 253 0 43 -14 60 -52 60 -37 0 -82
-23 -243 -125 -231 -146 -443 -255 -615 -317 -114 -41 -249 -50 -297 -19 -41
26 -60 62 -72 142 -31 190 13 499 105 747 107 287 326 631 480 756 72 59 92
65 117 35 18 -22 19 -35 13 -129 -19 -330 -142 -725 -308 -988 -94 -148 -24
-221 153 -158 104 36 203 107 335 240 144 143 239 281 309 448 84 198 121 409
96 543 -30 165 -144 287 -305 329 -74 20 -198 27 -271 16z"/>
<path d="M2986 3859 c-137 -18 -292 -68 -312 -100 -7 -12 13 -32 86 -87 42
-33 96 -129 180 -322 109 -249 291 -651 386 -851 46 -98 84 -181 84 -185 0
-11 -137 -153 -229 -238 -109 -99 -232 -195 -391 -304 -246 -169 -279 -203
-326 -344 -48 -141 -42 -266 16 -331 52 -58 114 -41 283 81 151 108 303 245
562 507 l261 263 38 -72 c170 -313 423 -460 686 -397 145 35 370 176 370 233
0 10 -32 41 -77 74 -179 131 -369 360 -482 584 -34 65 -61 125 -61 133 0 8 53
81 117 163 445 567 584 761 658 915 19 40 35 82 35 92 0 32 -45 67 -87 67 -90
0 -243 -55 -336 -119 -75 -51 -159 -163 -348 -464 -75 -119 -206 -297 -218
-297 -4 0 -27 51 -51 113 -140 366 -291 641 -424 771 -59 58 -149 103 -232
116 -67 11 -91 11 -188 -1z"/>
</g>
</svg>
