<?xml version="1.0" encoding="UTF-8"?><svg id="logo" xmlns="http://www.w3.org/2000/svg" xmlns:xlink="http://www.w3.org/1999/xlink" viewBox="0 0 568.69 400"><defs><style>.cls-1{fill:#7ebd37;}.cls-2{fill:url(#radial-gradient);}</style><radialGradient id="radial-gradient" cx="284.34" cy="49.26" fx="284.34" fy="49.26" r="439.12" gradientUnits="userSpaceOnUse"><stop offset="0" stop-color="#2e3084"/><stop offset="1" stop-color="#31a3ec"/></radialGradient></defs><path class="cls-1" d="m284.34,0h0C316.54,0,342.69,26.14,342.69,58.34v58.34h-58.34c-32.2,0-58.34-26.14-58.34-58.34h0C226,26.14,252.15,0,284.34,0Z" transform="translate(124.54 -183.97) rotate(45)"/><path class="cls-1" d="m367.44,250.51l-83.1-83.1-83.1,83.1c-33.07,33.07-80.9,42.39-122.29,27.94-1.03,5.87-1.58,11.91-1.58,18.07h0c0,57.15,46.33,103.48,103.48,103.48h0c44.46,0,82.36-28.04,97.01-67.4-12.71-1.41-25.04-6.97-34.78-16.72h0c-22.78-22.78-22.78-59.72,0-82.51l41.25-41.25,41.25,41.25c22.78,22.78,22.78,59.72,0,82.51h0c-9.74,9.74-22.08,15.31-34.78,16.72,14.65,39.36,52.55,67.4,97.01,67.4h0c57.15,0,103.48-46.33,103.48-103.48h0c0-6.16-.54-12.2-1.58-18.07-41.39,14.44-89.22,5.13-122.29-27.94Z"/><path class="cls-2" d="m534.16,83.79h0c-46.04-46.04-120.68-46.04-166.72,0l-83.1,83.1-83.1-83.1c-46.04-46.04-120.68-46.04-166.72,0h0c-46.04,46.04-46.04,120.68,0,166.72h0c12.97,12.97,28.2,22.28,44.43,27.94,41.39,14.44,89.22,5.13,122.29-27.94l83.1-83.1,83.1,83.1c33.07,33.07,80.9,42.39,122.29,27.94,16.23-5.66,31.46-14.98,44.43-27.94h0c46.04-46.04,46.04-120.68,0-166.72Z"/></svg>