<svg width="50" height="50" viewBox="0 0 50 50" fill="none" xmlns="http://www.w3.org/2000/svg">
<path d="M42.5713 17.1241C39.3331 13.9183 34.0831 13.9183 30.8448 17.1241L25 22.9105L19.1552 17.1241C15.9169 13.9183 10.6669 13.9183 7.42869 17.1241C4.19044 20.33 4.19044 25.5275 7.42869 28.7333C8.87201 30.1622 10.7159 30.9538 12.6027 31.1088C14.948 31.3011 17.361 30.5103 19.1552 28.7333L25 22.947L30.8448 28.7333C32.6397 30.5103 35.052 31.3011 37.3973 31.1088C39.2841 30.9538 41.1272 30.1622 42.5713 28.7333C45.8096 25.5275 45.8096 20.33 42.5713 17.1241Z" fill="#818181"/>
<path d="M25 20.9198L22.657 18.6002C21.3627 17.3189 21.3627 15.2423 22.657 13.961C23.9512 12.6797 26.0488 12.6797 27.343 13.961C28.6373 15.2423 28.6373 17.3189 27.343 18.6002L25 20.9198Z" fill="#ACACAC"/>
<path d="M30.8448 28.7341L25 22.9478L19.1552 28.7341C17.3603 30.5111 14.948 31.3019 12.6027 31.1096C12.8571 34.273 15.5307 36.761 18.7915 36.761C21.429 36.761 23.6824 35.1324 24.5821 32.8359C23.8782 32.7479 23.1976 32.4371 22.657 31.9019C21.3627 30.6206 21.3627 28.544 22.657 27.2627L25 24.9431L27.343 27.2627C28.6373 28.544 28.6373 30.6206 27.343 31.9019C26.8025 32.4371 26.1218 32.7479 25.4179 32.8359C26.3176 35.1324 28.571 36.761 31.2085 36.761C34.4693 36.761 37.1421 34.273 37.3974 31.1096C35.0521 31.3019 32.639 30.5111 30.8448 28.7341Z" fill="#ACACAC"/>
</svg>
