<?xml version="1.0" standalone="no"?>
<!DOCTYPE svg PUBLIC "-//W3C//DTD SVG 20010904//EN"
 "http://www.w3.org/TR/2001/REC-SVG-20010904/DTD/svg10.dtd">
<svg version="1.0" xmlns="http://www.w3.org/2000/svg"
 width="126.000000pt" height="142.000000pt" viewBox="0 0 1080.000000 1080.000000"
 preserveAspectRatio="xMidYMid meet">

<g transform="translate(-430.000000, 1520.000000) scale(0.180000,-0.180000)"
fill="#000000" stroke="none">
<path d="M4385 8225 c-5 -2 -51 -13 -102 -24 -311 -73 -736 -330 -1001 -606
-330 -343 -581 -835 -624 -1222 -47 -427 208 -825 619 -962 232 -78 491 -54
858 82 313 115 572 261 687 386 95 103 228 384 228 481 0 41 -26 70 -61 70
-34 0 -109 -40 -291 -153 -346 -215 -636 -357 -832 -407 -178 -45 -287 -10
-322 103 -34 112 -28 405 12 612 82 418 324 890 607 1184 156 162 217 161 217
-1 0 -159 -44 -408 -115 -654 -58 -199 -135 -375 -244 -553 -57 -94 -69 -137
-51 -182 40 -97 250 -46 456 109 87 66 254 234 325 327 134 175 253 428 304
645 22 97 30 272 15 358 -17 102 -66 196 -138 264 -108 103 -239 149 -426 147
-61 0 -115 -2 -121 -4z"/>
<path d="M5798 8204 c-64 -13 -141 -33 -170 -44 -53 -20 -98 -52 -98 -70 0 -5
27 -27 59 -49 33 -22 73 -57 90 -78 36 -44 125 -221 206 -413 81 -191 205
-466 335 -745 61 -132 130 -279 152 -327 l41 -87 -79 -87 c-181 -199 -370
-355 -775 -634 -142 -98 -209 -169 -248 -264 -80 -194 -81 -385 -1 -461 61
-59 143 -36 315 88 238 171 505 419 917 851 l76 80 32 -65 c121 -240 292 -409
483 -476 106 -37 255 -43 362 -14 176 48 432 213 423 273 -2 14 -32 42 -88 82
-223 158 -445 428 -589 716 -34 67 -61 129 -61 138 0 9 66 100 146 202 631
802 831 1099 808 1203 -17 79 -159 79 -349 0 -162 -67 -265 -172 -442 -448
-53 -82 -121 -188 -151 -235 -70 -108 -212 -300 -224 -300 -10 0 -12 4 -77
175 -191 498 -404 845 -585 950 -120 70 -295 84 -508 39z"/>
<path d="M4067 4449 c-45 -45 -100 -142 -185 -324 -82 -177 -150 -346 -187
-468 -20 -66 -35 -96 -61 -122 -41 -41 -42 -49 -9 -71 25 -16 25 -17 25 -175
0 -115 4 -169 14 -193 21 -50 90 -116 122 -116 21 0 25 3 19 18 -19 47 -27
181 -16 280 7 57 15 110 18 118 7 20 29 15 166 -41 133 -53 190 -88 297 -176
46 -38 88 -69 94 -69 20 0 36 23 36 51 0 59 -164 214 -328 311 l-103 61 48 33
c185 130 278 213 386 347 100 123 219 301 242 361 19 48 19 49 -3 90 -12 22
-22 46 -22 52 0 6 -7 17 -15 24 -22 18 -35 4 -145 -160 -172 -257 -265 -368
-427 -512 -101 -88 -153 -126 -153 -110 0 17 87 227 192 462 55 124 102 239
104 255 5 33 3 37 -43 79 l-32 29 -34 -34z m-52 -241 c-101 -210 -177 -390
-221 -523 -18 -55 -33 -93 -34 -83 0 26 66 207 131 360 33 76 56 144 53 150
-4 6 -3 8 3 5 13 -8 26 20 16 35 -3 6 -2 8 3 5 6 -3 36 46 67 109 31 63 59
114 61 114 3 0 -33 -78 -79 -172z m51 56 c-19 -38 -35 -66 -36 -62 0 11 63
138 68 134 2 -2 -13 -35 -32 -72z m-80 -171 c-14 -26 -25 -45 -26 -41 0 12 43
98 48 94 2 -2 -8 -26 -22 -53z m414 -47 c0 -2 -8 -10 -17 -17 -16 -13 -17 -12
-4 4 13 16 21 21 21 13z m-46 -58 c-11 -13 -57 -65 -103 -115 -45 -51 -79 -93
-75 -93 5 0 34 24 64 53 31 28 16 12 -33 -36 -50 -48 -104 -97 -121 -108 -20
-13 -15 -6 14 19 25 22 45 44 45 49 0 5 38 51 85 102 83 90 107 123 79 105
-12 -7 -12 -5 0 9 7 9 17 15 21 12 4 -3 13 2 20 10 7 8 15 15 18 15 3 0 -3
-10 -14 -22z m-423 -15 c-12 -20 -14 -14 -5 12 4 9 9 14 11 11 3 -2 0 -13 -6
-23z m-30 -70 c-12 -20 -14 -14 -5 12 4 9 9 14 11 11 3 -2 0 -13 -6 -23z m-20
-50 c-12 -20 -14 -14 -5 12 4 9 9 14 11 11 3 -2 0 -13 -6 -23z m-20 -50 c-12
-20 -14 -14 -5 12 4 9 9 14 11 11 3 -2 0 -13 -6 -23z m-22 -62 c-6 -18 -13
-30 -15 -28 -2 2 1 18 7 36 6 18 13 30 15 28 2 -2 -1 -18 -7 -36z m256 -361
c3 0 3 6 -1 12 -5 7 7 3 26 -9 37 -23 54 -61 19 -43 -10 6 -18 16 -16 22 1 6
-4 13 -12 16 -9 3 -11 0 -6 -7 4 -7 -16 -1 -44 13 -28 15 -51 29 -51 31 0 3
18 -4 40 -15 21 -11 42 -20 45 -20z m-378 -17 c-3 -10 -5 -4 -5 12 0 17 2 24
5 18 2 -7 2 -21 0 -30z"/>
<path d="M5954 4443 c-56 -60 -145 -289 -228 -583 -65 -232 -78 -317 -74 -490
3 -149 4 -157 33 -215 24 -48 38 -64 75 -82 47 -23 90 -30 90 -13 0 5 -11 25
-24 45 -32 47 -40 102 -33 239 7 155 35 265 182 732 109 344 104 318 64 360
-40 41 -52 42 -85 7z m-4 -177 c-22 -54 -54 -142 -72 -196 -17 -55 -34 -97
-36 -95 -2 2 12 53 33 114 20 61 33 116 29 122 -4 7 -3 9 3 6 5 -3 24 30 42
74 18 44 35 79 37 77 2 -2 -14 -48 -36 -102z m-136 -405 c-15 -50 -29 -89 -31
-87 -3 2 8 45 23 95 15 50 29 89 31 87 2 -2 -8 -45 -23 -95z m20 -15 c-3 -15
-8 -25 -11 -23 -2 3 -1 17 3 31 3 15 8 25 11 23 2 -3 1 -17 -3 -31z m-20 -70
c-3 -15 -8 -25 -11 -23 -2 3 -1 17 3 31 3 15 8 25 11 23 2 -3 1 -17 -3 -31z
m-37 -38 c-3 -8 -6 -5 -6 6 -1 11 2 17 5 13 3 -3 4 -12 1 -19z m17 -32 c-3
-15 -8 -25 -11 -23 -2 3 -1 17 3 31 3 15 8 25 11 23 2 -3 1 -17 -3 -31z m-27
-8 c-3 -8 -6 -5 -6 6 -1 11 2 17 5 13 3 -3 4 -12 1 -19z m-10 -40 c-3 -8 -6
-5 -6 6 -1 11 2 17 5 13 3 -3 4 -12 1 -19z m20 -10 c-3 -8 -6 -5 -6 6 -1 11 2
17 5 13 3 -3 4 -12 1 -19z m-30 -30 c-3 -8 -6 -5 -6 6 -1 11 2 17 5 13 3 -3 4
-12 1 -19z m-10 -55 c-3 -10 -5 -4 -5 12 0 17 2 24 5 18 2 -7 2 -21 0 -30z
m20 -5 c-3 -8 -6 -5 -6 6 -1 11 2 17 5 13 3 -3 4 -12 1 -19z m-30 -55 c-3 -10
-5 -4 -5 12 0 17 2 24 5 18 2 -7 2 -21 0 -30z m-8 -145 c-1 -64 -4 -92 -8 -73
-7 29 -3 175 5 175 2 0 4 -46 3 -102z m18 55 c-3 -10 -5 -2 -5 17 0 19 2 27 5
18 2 -10 2 -26 0 -35z"/>
<path d="M6646 3838 c-64 -65 -146 -318 -146 -449 0 -149 37 -221 139 -268 44
-21 54 -22 80 -11 30 12 77 59 133 130 26 34 26 30 -17 -96 -133 -396 -298
-633 -441 -634 -35 0 -59 -14 -50 -28 12 -20 119 -54 151 -48 100 19 222 117
315 253 130 187 266 562 315 867 20 123 15 147 -36 180 -21 15 -39 31 -39 36
0 6 -11 10 -23 10 -21 0 -26 -9 -46 -82 -43 -162 -144 -357 -234 -452 -75 -79
-87 -76 -87 24 0 85 40 262 99 434 23 67 28 92 20 103 -6 7 -15 13 -20 13 -4
0 -20 11 -35 25 -15 14 -31 25 -36 25 -6 0 -24 -15 -42 -32z m45 -129 c-11
-24 -20 -41 -20 -37 -1 12 31 89 35 85 3 -2 -4 -24 -15 -48z m-50 -72 c-16
-47 -37 -120 -46 -162 -10 -42 -19 -74 -22 -72 -2 3 3 35 12 72 8 36 13 78 10
93 -4 19 -3 21 3 9 6 -13 15 4 36 68 15 48 30 85 32 83 2 -3 -9 -43 -25 -91z
m-14 -129 c-3 -8 -6 -5 -6 6 -1 11 2 17 5 13 3 -3 4 -12 1 -19z m400 0 c-3 -8
-6 -5 -6 6 -1 11 2 17 5 13 3 -3 4 -12 1 -19z m-36 -151 c-17 -62 -35 -124
-41 -138 l-11 -24 6 25 c18 82 71 268 73 260 2 -5 -10 -60 -27 -123z m6 -69
c-3 -8 -6 -5 -6 6 -1 11 2 17 5 13 3 -3 4 -12 1 -19z m-32 -108 c-15 -45 -29
-80 -31 -78 -2 2 9 41 23 86 15 45 29 80 31 77 2 -2 -8 -40 -23 -85z m-54
-147 c-12 -20 -14 -14 -5 12 4 9 9 14 11 11 3 -2 0 -13 -6 -23z m-20 -50 c-12
-20 -14 -14 -5 12 4 9 9 14 11 11 3 -2 0 -13 -6 -23z"/>
<path d="M4840 3831 c-173 -55 -332 -271 -356 -480 -14 -123 40 -217 156 -276
75 -38 148 -30 207 24 79 73 163 197 163 241 0 33 -13 24 -69 -45 -80 -101
-178 -164 -252 -165 -50 0 -64 34 -56 138 8 99 24 146 46 136 39 -16 119 -16
154 1 110 52 209 235 183 338 -3 14 -24 39 -46 57 -42 33 -89 44 -130 31z
m100 -104 c0 -28 -34 -114 -62 -155 -17 -24 -48 -56 -70 -72 -39 -29 -103 -49
-115 -36 -15 15 108 177 177 232 59 47 70 52 70 31z m-366 -321 c-3 -15 -8
-25 -11 -23 -2 3 -1 17 3 31 3 15 8 25 11 23 2 -3 1 -17 -3 -31z m-17 -58 c-3
-8 -6 -5 -6 6 -1 11 2 17 5 13 3 -3 4 -12 1 -19z"/>
<path d="M5420 3831 c-173 -55 -332 -271 -356 -480 -14 -123 40 -217 156 -276
75 -38 148 -30 207 24 79 73 163 197 163 241 0 33 -13 24 -69 -45 -80 -101
-178 -164 -252 -165 -50 0 -64 34 -56 138 8 99 24 146 46 136 39 -16 119 -16
154 1 110 52 209 235 183 338 -3 14 -24 39 -46 57 -42 33 -89 44 -130 31z
m100 -104 c0 -28 -34 -114 -62 -155 -17 -24 -48 -56 -70 -72 -39 -29 -103 -49
-115 -36 -15 15 108 177 177 232 59 47 70 52 70 31z m-366 -321 c-3 -15 -8
-25 -11 -23 -2 3 -1 17 3 31 3 15 8 25 11 23 2 -3 1 -17 -3 -31z m-17 -58 c-3
-8 -6 -5 -6 6 -1 11 2 17 5 13 3 -3 4 -12 1 -19z"/>
<path d="M6248 3821 c-176 -69 -327 -299 -330 -501 -1 -116 36 -178 147 -241
86 -49 161 -35 240 45 87 90 159 216 133 232 -7 4 -23 -7 -37 -27 -91 -120
-202 -199 -282 -199 -34 0 -38 3 -49 36 -13 39 -9 121 11 199 9 37 15 45 28
39 9 -4 43 -9 76 -11 55 -4 64 -2 109 28 87 58 157 182 159 281 1 52 -9 67
-67 110 -45 32 -73 34 -138 9z m102 -173 c-25 -69 -91 -145 -145 -169 -38 -18
-85 -25 -85 -14 0 3 22 38 49 78 48 70 120 147 171 181 24 16 25 16 28 -2 2
-10 -6 -44 -18 -74z m-346 -252 c-3 -15 -8 -25 -11 -23 -2 3 -1 17 3 31 3 15
8 25 11 23 2 -3 1 -17 -3 -31z"/>
</g>
</svg>
