<?xml version="1.0" standalone="no"?>
<!DOCTYPE svg PUBLIC "-//W3C//DTD SVG 20010904//EN"
 "http://www.w3.org/TR/2001/REC-SVG-20010904/DTD/svg10.dtd">
<svg version="1.0" xmlns="http://www.w3.org/2000/svg"
 width="1184.280000pt" height="400.000000pt" viewBox="0 0 1184.280000 400.000000"
 preserveAspectRatio="xMidYMid meet">

<g transform="translate(30.000000, 760.000000) scale(0.104000,-0.104000)"
fill="#000000" stroke="none">
<path d="M2812 6940 c-390 -54 -948 -400 -1245 -770 -221 -276 -394 -614 -469
-918 -28 -111 -32 -144 -31 -262 0 -157 20 -253 83 -387 47 -100 87 -160 159
-237 230 -243 535 -333 884 -262 220 45 468 135 697 252 244 124 361 225 448
388 106 198 145 334 107 376 -40 44 -98 21 -341 -133 -265 -168 -559 -318
-751 -383 -107 -37 -271 -45 -323 -16 -69 38 -100 145 -100 345 0 491 221
1052 586 1487 72 85 170 171 211 184 15 5 28 1 42 -13 67 -67 -33 -655 -167
-981 -45 -112 -108 -235 -171 -339 -28 -46 -53 -98 -57 -116 -8 -43 13 -86 51
-104 70 -34 250 29 400 141 102 76 290 269 368 378 115 162 227 409 272 600
22 95 30 282 16 365 -33 191 -174 338 -372 389 -75 19 -219 27 -297 16z"/>
<path d="M4323 6940 c-94 -12 -267 -56 -321 -82 -23 -11 -47 -28 -52 -38 -11
-20 5 -37 82 -88 79 -54 126 -144 383 -742 41 -95 174 -384 304 -659 56 -118
101 -219 101 -226 0 -6 -62 -74 -138 -151 -193 -196 -330 -307 -604 -496 -272
-187 -313 -227 -368 -370 -58 -150 -65 -309 -16 -393 27 -45 68 -75 104 -75
34 0 173 77 269 148 215 160 614 532 858 801 50 55 93 100 97 100 4 1 19 -20
34 -46 115 -204 197 -309 303 -387 236 -173 491 -178 777 -15 99 57 196 144
192 173 -2 12 -30 40 -68 68 -174 127 -315 274 -457 476 -75 108 -213 363
-213 395 0 8 21 41 48 74 824 1041 997 1314 872 1378 -53 28 -171 10 -304 -45
-196 -82 -278 -172 -551 -605 -100 -160 -266 -386 -279 -382 -5 2 -18 27 -29
57 -124 340 -259 624 -390 819 -61 91 -175 212 -231 245 -103 60 -251 85 -403
66z"/>
<path d="M7391 5870 c-64 -89 -204 -396 -256 -562 -16 -52 -36 -95 -51 -109
-27 -26 -31 -47 -9 -55 12 -5 15 -29 15 -127 0 -133 16 -187 67 -227 46 -36
48 -31 48 134 0 110 4 159 12 167 10 10 33 5 110 -27 106 -42 181 -87 257
-153 55 -48 79 -50 84 -7 3 26 -8 41 -85 115 -49 47 -117 102 -151 121 -104
58 -102 50 -20 105 162 110 391 380 447 529 7 17 3 36 -15 75 -22 44 -28 50
-40 40 -9 -7 -61 -80 -117 -163 -79 -117 -130 -179 -227 -277 -119 -120 -175
-167 -185 -157 -6 6 68 188 153 379 78 173 81 184 51 215 -32 34 -54 30 -88
-16z m35 -63 c0 -13 -6 -24 -13 -24 -8 0 -8 7 0 24 13 29 15 29 13 0z m-56
-152 c0 -5 -4 -4 -8 3 -6 9 -14 0 -27 -28 -10 -22 -20 -38 -22 -36 -2 2 6 24
18 50 15 31 26 42 31 33 4 -6 8 -16 8 -22z m-56 -91 c3 -8 2 -13 -3 -10 -5 3
-14 -8 -21 -24 -7 -17 -15 -29 -17 -27 -3 4 28 77 33 77 1 0 5 -7 8 -16z m316
-27 c0 -2 -12 -14 -27 -28 l-28 -24 24 28 c23 25 31 32 31 24z m-369 -74 c-12
-20 -14 -14 -5 12 4 9 9 14 11 11 3 -2 0 -13 -6 -23z m294 -13 c-10 -11 -14
-20 -10 -20 13 0 -53 -66 -100 -102 l-40 -30 40 36 c22 20 36 36 30 36 -5 0
13 23 40 50 48 49 76 70 40 30z m-295 -21 c0 8 3 12 6 8 3 -3 1 -14 -5 -24 -8
-14 -10 -14 -11 -3 0 13 -1 13 -10 0 -11 -17 -13 -9 -4 15 5 13 8 14 15 3 7
-11 9 -10 9 1z m-39 -66 c-12 -20 -14 -14 -5 12 4 9 9 14 11 11 3 -2 0 -13 -6
-23z m-34 -105 c-3 -8 -6 -5 -6 6 -1 11 2 17 5 13 3 -3 4 -12 1 -19z m243
-184 c0 -2 -13 2 -30 11 -16 9 -30 18 -30 21 0 2 14 -2 30 -11 17 -9 30 -18
30 -21z"/>
<path d="M7504 5398 l-29 -33 33 29 c30 28 37 36 29 36 -2 0 -16 -15 -33 -32z"/>
<path d="M8850 5880 c-71 -100 -196 -492 -221 -693 -13 -103 -6 -220 15 -270
18 -45 70 -87 108 -87 l30 0 -24 38 c-21 33 -23 48 -22 152 1 131 26 236 134
575 76 239 81 268 49 294 -33 28 -44 26 -69 -9z m16 -97 c-8 -15 -15 -25 -16
-21 0 12 23 58 27 54 3 -2 -2 -17 -11 -33z m-27 -72 c-6 -18 -13 -30 -15 -28
-2 2 1 18 7 36 6 18 13 30 15 28 2 -2 -1 -18 -7 -36z m-31 -86 c-3 -3 -9 2
-12 12 -6 14 -5 15 5 6 7 -7 10 -15 7 -18z m-34 -109 c-3 -15 -8 -25 -11 -23
-2 3 -1 17 3 31 3 15 8 25 11 23 2 -3 1 -17 -3 -31z m-25 -146 c0 -10 -3 -8
-9 5 -12 27 -12 43 0 25 5 -8 9 -22 9 -30z m-52 -132 c-3 -8 -6 -5 -6 6 -1 11
2 17 5 13 3 -3 4 -12 1 -19z m-10 -50 c-3 -8 -6 -5 -6 6 -1 11 2 17 5 13 3 -3
4 -12 1 -19z m-10 -165 c-2 -21 -4 -4 -4 37 0 41 2 58 4 38 2 -21 2 -55 0 -75z"/>
<path d="M9387 5432 c-23 -25 -70 -134 -92 -212 -11 -39 -19 -97 -19 -146 0
-105 21 -148 90 -186 45 -24 52 -25 81 -13 17 7 50 37 72 65 23 29 41 47 41
41 0 -26 -86 -244 -133 -336 -64 -125 -151 -220 -213 -230 -67 -11 -72 -14
-49 -31 42 -31 91 -38 139 -20 104 40 194 138 275 301 108 217 211 609 173
660 -14 19 -73 56 -84 53 -6 -2 -20 -37 -32 -78 -24 -81 -92 -224 -134 -280
-33 -44 -81 -90 -94 -90 -24 0 -1 181 37 305 54 171 54 168 10 193 -44 27 -48
27 -68 4z m44 -79 c-12 -20 -14 -14 -5 12 4 9 9 14 11 11 3 -2 0 -13 -6 -23z
m-20 -50 c-12 -20 -14 -14 -5 12 4 9 9 14 11 11 3 -2 0 -13 -6 -23z m-37 -57
c-3 -15 -8 -25 -11 -23 -2 3 -1 17 3 31 3 15 8 25 11 23 2 -3 1 -17 -3 -31z
m-17 -58 c-3 -8 -6 -5 -6 6 -1 11 2 17 5 13 3 -3 4 -12 1 -19z m-8 -38 c0 -10
-3 -8 -9 5 -12 27 -12 43 0 25 5 -8 9 -22 9 -30z m328 18 c-3 -8 -6 -5 -6 6
-1 11 2 17 5 13 3 -3 4 -12 1 -19z m-10 -40 c-3 -8 -6 -5 -6 6 -1 11 2 17 5
13 3 -3 4 -12 1 -19z m-330 -20 c-3 -8 -6 -5 -6 6 -1 11 2 17 5 13 3 -3 4 -12
1 -19z m315 -48 c-9 -24 -9 -24 -14 -2 -4 12 -2 20 3 16 5 -3 10 5 10 18 1 14
3 17 6 7 2 -8 0 -26 -5 -39z m-15 -52 c-3 -8 -6 -5 -6 6 -1 11 2 17 5 13 3 -3
4 -12 1 -19z"/>
<path d="M7980 5413 c-60 -21 -158 -120 -198 -199 -58 -115 -66 -241 -20 -300
38 -48 106 -84 160 -84 44 0 54 4 98 46 77 72 141 184 106 184 -9 0 -16 -3
-16 -8 0 -4 -21 -31 -46 -60 -51 -58 -111 -97 -165 -107 -33 -6 -37 -4 -49 25
-10 25 -11 47 -2 102 12 83 20 93 55 77 91 -41 237 101 237 232 0 47 -17 72
-67 98 -27 14 -37 13 -93 -6z m100 -80 c-1 -53 -67 -150 -122 -179 -27 -14
-68 -19 -68 -8 0 16 86 127 126 163 51 45 64 50 64 24z"/>
<path d="M8415 5407 c-70 -33 -149 -117 -193 -206 -31 -63 -38 -88 -41 -152
-4 -99 13 -138 83 -185 57 -38 116 -45 165 -20 68 36 187 216 142 216 -5 0
-26 -23 -47 -51 -44 -58 -110 -104 -168 -120 -34 -9 -42 -8 -53 7 -19 26 -12
178 9 199 2 3 20 -1 41 -7 90 -28 208 76 232 205 10 54 0 81 -43 111 -47 32
-63 32 -127 3z m100 -103 c-26 -88 -103 -164 -164 -164 -22 0 -22 0 -4 31 40
68 148 179 174 179 4 0 2 -21 -6 -46z"/>
<path d="M9073 5411 c-138 -63 -253 -257 -241 -406 5 -63 24 -94 87 -142 36
-28 51 -33 98 -33 53 0 56 1 113 58 56 56 100 125 100 157 0 26 -14 17 -53
-34 -43 -59 -107 -105 -166 -121 -53 -14 -62 -7 -68 52 -4 37 12 158 21 158 2
0 17 -5 35 -11 47 -16 93 -3 142 40 68 60 111 162 95 225 -7 29 -70 76 -101
76 -11 0 -39 -9 -62 -19z m101 -88 c-13 -53 -54 -122 -87 -147 -34 -26 -97
-46 -97 -31 0 33 151 205 180 205 6 0 8 -10 4 -27z"/>
</g>
</svg>
