<?xml version="1.0" encoding="UTF-8"?><svg id="logo" xmlns="http://www.w3.org/2000/svg" xmlns:xlink="http://www.w3.org/1999/xlink" viewBox="0 0 1184.28 400"><defs><style>.cls-1{fill:#7ebd37;}.cls-2{fill:#31a3ec;}.cls-3{fill:#2d69b2;}.cls-4{fill:url(#radial-gradient);}</style><radialGradient id="radial-gradient" cx="284.34" cy="49.26" fx="284.34" fy="49.26" r="439.12" gradientUnits="userSpaceOnUse"><stop offset="0" stop-color="#2e3084"/><stop offset="1" stop-color="#31a3ec"/></radialGradient></defs><path class="cls-1" d="m284.34,0h0C316.54,0,342.69,26.14,342.69,58.34v58.34h-58.34c-32.2,0-58.34-26.14-58.34-58.34h0C226,26.14,252.15,0,284.34,0Z" transform="translate(124.54 -183.97) rotate(45)"/><path class="cls-1" d="m367.44,250.51l-83.1-83.1-83.1,83.1c-33.07,33.07-80.9,42.39-122.29,27.94-1.03,5.87-1.58,11.91-1.58,18.07h0c0,57.15,46.33,103.48,103.48,103.48h0c44.46,0,82.36-28.04,97.01-67.4-12.71-1.41-25.04-6.97-34.78-16.72h0c-22.78-22.78-22.78-59.72,0-82.51l41.25-41.25,41.25,41.25c22.78,22.78,22.78,59.72,0,82.51h0c-9.74,9.74-22.08,15.31-34.78,16.72,14.65,39.36,52.55,67.4,97.01,67.4h0c57.15,0,103.48-46.33,103.48-103.48h0c0-6.16-.54-12.2-1.58-18.07-41.39,14.44-89.22,5.13-122.29-27.94Z"/><path class="cls-4" d="m534.16,83.79h0c-46.04-46.04-120.68-46.04-166.72,0l-83.1,83.1-83.1-83.1c-46.04-46.04-120.68-46.04-166.72,0h0c-46.04,46.04-46.04,120.68,0,166.72h0c12.97,12.97,28.2,22.28,44.43,27.94,41.39,14.44,89.22,5.13,122.29-27.94l83.1-83.1,83.1,83.1c33.07,33.07,80.9,42.39,122.29,27.94,16.23-5.66,31.46-14.98,44.43-27.94h0c46.04-46.04,46.04-120.68,0-166.72Z"/><path class="cls-3" d="m759.58,227.68c-12.07,0-23.07-1.99-33-5.96-9.93-3.97-18.47-9.49-25.6-16.56-7.14-7.06-12.69-15.45-16.67-25.16-3.97-9.71-5.96-20.31-5.96-31.79v-.44c0-11.04,2.02-21.37,6.07-31.01,4.05-9.64,9.67-18.1,16.89-25.39,7.21-7.28,15.74-13.02,25.61-17.22,9.86-4.19,20.67-6.29,32.45-6.29,6.92,0,13.21.48,18.87,1.43,5.66.96,10.93,2.32,15.78,4.08,4.86,1.77,9.42,3.97,13.69,6.62,4.27,2.65,8.39,5.67,12.36,9.05l-21.41,25.83c-2.95-2.5-5.89-4.71-8.83-6.62-2.95-1.91-6-3.53-9.16-4.86-3.17-1.32-6.59-2.35-10.26-3.09-3.68-.73-7.73-1.1-12.14-1.1-6.18,0-11.96,1.29-17.33,3.87-5.37,2.58-10.08,6.05-14.13,10.4-4.05,4.35-7.21,9.44-9.49,15.26-2.28,5.83-3.42,12.06-3.42,18.69v.44c0,7.08,1.14,13.61,3.42,19.58,2.28,5.97,5.52,11.17,9.71,15.6,4.19,4.42,9.12,7.85,14.79,10.29,5.66,2.44,11.95,3.65,18.87,3.65,12.65,0,23.32-3.11,32.01-9.34v-22.23h-34.21v-29.36h67.1v67.1c-7.95,6.77-17.4,12.55-28.36,17.33-10.96,4.78-23.51,7.17-37.64,7.17Z"/><path class="cls-3" d="m827.56,70.51h36.42l32.01,104.63,34.65-105.07h29.14l34.66,105.07,32.01-104.63h35.54l-52.76,155.62h-29.58l-34.88-101.1-34.88,101.1h-29.58l-52.76-155.62Z"/><path class="cls-3" d="m1127.77,227.24c-11.77,0-23.33-2.02-34.66-6.07-11.33-4.05-21.63-10.26-30.9-18.65l20.09-24.06c7.06,5.74,14.31,10.3,21.74,13.68,7.43,3.39,15.56,5.08,24.39,5.08,7.06,0,12.54-1.29,16.45-3.86,3.9-2.57,5.85-6.14,5.85-10.71v-.44c0-2.21-.41-4.16-1.22-5.85-.81-1.69-2.36-3.27-4.65-4.75-2.29-1.47-5.46-2.94-9.52-4.41-4.06-1.47-9.33-3.01-15.82-4.64-7.82-1.91-14.9-4.05-21.25-6.4-6.35-2.35-11.73-5.26-16.16-8.72-4.43-3.46-7.86-7.76-10.29-12.91-2.44-5.15-3.65-11.55-3.65-19.2v-.44c0-7.06,1.31-13.43,3.95-19.09,2.63-5.66,6.32-10.56,11.08-14.68,4.75-4.12,10.43-7.28,17.02-9.49,6.59-2.21,13.87-3.31,21.81-3.31,11.33,0,21.74,1.69,31.23,5.08,9.49,3.39,18.21,8.24,26.16,14.57l-17.66,25.61c-6.92-4.71-13.69-8.42-20.31-11.15-6.62-2.72-13.24-4.08-19.87-4.08s-11.59,1.29-14.9,3.86c-3.31,2.58-4.97,5.78-4.97,9.6v.44c0,2.5.48,4.67,1.44,6.51.96,1.84,2.69,3.5,5.2,4.97,2.51,1.47,5.94,2.87,10.29,4.19,4.35,1.33,9.85,2.87,16.49,4.64,7.82,2.06,14.79,4.38,20.91,6.95,6.12,2.58,11.29,5.67,15.49,9.27,4.2,3.61,7.38,7.84,9.52,12.69,2.14,4.86,3.21,10.67,3.21,17.44v.44c0,7.65-1.39,14.46-4.17,20.42-2.78,5.96-6.65,10.96-11.62,15.01-4.97,4.05-10.9,7.14-17.8,9.27-6.9,2.13-14.53,3.2-22.92,3.2Z"/><path class="cls-2" d="m761.74,344v-35.33c0-8.51-3.78-12.88-10.52-12.88s-10.87,4.37-10.87,12.88v35.33h-17.96v-35.33c0-8.51-3.78-12.88-10.52-12.88s-10.87,4.37-10.87,12.88v35.33h-17.96v-63.33h17.96v8.98c4.13-5.32,9.57-10.16,18.67-10.16,8.27,0,14.53,3.66,17.84,10.04,5.55-6.5,12.17-10.04,20.79-10.04,13.35,0,21.38,8.03,21.38,23.27v41.23h-17.96Z"/><path class="cls-2" d="m854.13,318.6h-44.07c1.77,8.15,7.44,12.41,15.48,12.41,6.03,0,10.4-1.89,15.36-6.5l10.28,9.1c-5.91,7.33-14.42,11.82-25.88,11.82-19.02,0-33.08-13.35-33.08-32.73v-.24c0-18.08,12.88-32.96,31.31-32.96,21.15,0,30.84,16.42,30.84,34.38v.24c0,1.77-.12,2.84-.24,4.49Zm-30.6-24.69c-7.44,0-12.29,5.32-13.71,13.47h27.06c-1.06-8.03-5.79-13.47-13.35-13.47Z"/><path class="cls-2" d="m913.44,344v-9.1c-4.37,5.91-10.4,10.28-19.73,10.28-14.77,0-28.83-11.58-28.83-32.73v-.24c0-21.15,13.82-32.73,28.83-32.73,9.57,0,15.48,4.37,19.73,9.45v-31.19h17.96v86.25h-17.96Zm.24-31.78c0-10.51-6.97-17.49-15.36-17.49s-15.48,6.85-15.48,17.49v.24c0,10.52,7.09,17.49,15.48,17.49s15.36-6.97,15.36-17.49v-.24Z"/><path class="cls-2" d="m947.82,273.7v-15.95h18.9v15.95h-18.9Zm.47,70.3v-63.33h17.96v63.33h-17.96Z"/><path class="cls-2" d="m1023.91,344l-16.54-25.88-6.26,6.62v19.26h-17.96v-86.25h17.96v45.96l21.03-23.04h21.5l-24.1,24.93,24.93,38.4h-20.56Z"/><path class="cls-2" d="m1089.01,344v-6.85c-4.37,4.84-10.4,8.03-19.14,8.03-11.93,0-21.74-6.85-21.74-19.38v-.24c0-13.82,10.52-20.2,25.52-20.2,6.38,0,10.99,1.06,15.48,2.6v-1.06c0-7.44-4.61-11.58-13.59-11.58-6.85,0-11.7,1.3-17.49,3.43l-4.49-13.71c6.97-3.07,13.82-5.08,24.57-5.08,19.61,0,28.24,10.16,28.24,27.29v36.74h-17.37Zm.35-25.52c-3.07-1.42-7.09-2.36-11.46-2.36-7.68,0-12.41,3.07-12.41,8.74v.24c0,4.84,4.02,7.68,9.81,7.68,8.39,0,14.06-4.61,14.06-11.11v-3.19Z"/></svg>
