<svg width="126" height="142" viewBox="0 0 126 142" fill="none" xmlns="http://www.w3.org/2000/svg">
<path d="M35.1345 123.057C33.2008 123.057 31.4383 122.74 29.8471 122.103C28.2558 121.466 26.888 120.583 25.7458 119.451C24.6014 118.319 23.7118 116.976 23.0749 115.418C22.438 113.861 22.1206 112.165 22.1206 110.325V110.254C22.1206 108.485 22.4443 106.829 23.0937 105.286C23.7411 103.743 24.6432 102.386 25.8001 101.218C26.9549 100.051 28.3227 99.1322 29.9014 98.4598C31.4801 97.7874 33.2133 97.4512 35.099 97.4512C36.2078 97.4512 37.2144 97.5284 38.1228 97.6809C39.029 97.8354 39.8727 98.0526 40.6516 98.3345C41.4305 98.6164 42.1593 98.9714 42.8443 99.3953C43.5271 99.8192 44.1891 100.304 44.8239 100.845L41.3929 104.981C40.921 104.58 40.449 104.227 39.9792 103.921C39.5073 103.614 39.0186 103.355 38.5112 103.142C38.0037 102.929 37.4566 102.766 36.8656 102.647C36.2768 102.53 35.6273 102.469 34.9215 102.469C33.9317 102.469 33.0066 102.676 32.1462 103.089C31.2859 103.503 30.532 104.058 29.8826 104.756C29.2331 105.453 28.7278 106.268 28.3623 107.201C27.9969 108.135 27.8152 109.133 27.8152 110.196V110.267C27.8152 111.401 27.9969 112.447 28.3623 113.403C28.7278 114.36 29.2457 115.193 29.9181 115.903C30.5905 116.611 31.3798 117.162 32.2882 117.55C33.1966 117.941 34.2031 118.135 35.312 118.135C37.3397 118.135 39.0478 117.636 40.4407 116.64V113.08H34.9591V108.377H45.7093V119.127C44.4355 120.211 42.9215 121.138 41.1653 121.902C39.4091 122.669 37.3981 123.051 35.1366 123.051L35.1345 123.057Z" fill="#064F7C"/>
<path d="M46.0247 97.8776H51.8592L56.9879 114.64L62.5405 97.8066H67.2077L72.7603 114.64L77.889 97.8776H83.5816L75.1305 122.809H70.3923L64.8042 106.613L59.216 122.809H54.4778L46.0267 97.8776H46.0247Z" fill="#064F7C"/>
<path d="M94.1209 122.985C92.2352 122.985 90.3829 122.662 88.5683 122.012C86.7515 121.365 85.1018 120.369 83.6171 119.024L86.835 115.169C87.9669 116.088 89.1279 116.819 90.3182 117.362C91.5085 117.905 92.8116 118.176 94.2253 118.176C95.3571 118.176 96.2342 117.969 96.8607 117.558C97.485 117.147 97.7983 116.574 97.7983 115.844V115.773C97.7983 115.42 97.7335 115.106 97.6041 114.835C97.4746 114.563 97.2261 114.311 96.8586 114.075C96.4931 113.839 95.9836 113.603 95.3342 113.367C94.6847 113.131 93.839 112.884 92.799 112.623C91.5461 112.316 90.4122 111.976 89.3952 111.598C88.3782 111.222 87.5158 110.754 86.8079 110.201C86.0979 109.648 85.5487 108.959 85.1582 108.132C84.7677 107.307 84.5735 106.281 84.5735 105.056V104.985C84.5735 103.853 84.7844 102.834 85.2062 101.925C85.628 101.017 86.219 100.234 86.9812 99.5741C87.7434 98.9142 88.6518 98.4068 89.7084 98.0539C90.7651 97.7009 91.9303 97.5234 93.2041 97.5234C95.0188 97.5234 96.6873 97.7949 98.2076 98.3358C99.7278 98.8787 101.125 99.6555 102.399 100.67L99.5691 104.772C98.4602 104.018 97.3764 103.423 96.3156 102.986C95.2548 102.55 94.194 102.333 93.1331 102.333C92.0723 102.333 91.2767 102.539 90.7463 102.951C90.2159 103.364 89.9507 103.876 89.9507 104.49V104.561C89.9507 104.962 90.0279 105.308 90.1804 105.605C90.3349 105.899 90.6106 106.165 91.0136 106.401C91.4145 106.636 91.9658 106.86 92.6633 107.073C93.3608 107.286 94.2399 107.532 95.3049 107.816C96.5579 108.146 97.6751 108.518 98.6565 108.929C99.638 109.343 100.465 109.838 101.139 110.414C101.814 110.993 102.321 111.669 102.664 112.448C103.006 113.227 103.178 114.158 103.178 115.242V115.313C103.178 116.539 102.954 117.629 102.509 118.585C102.065 119.54 101.444 120.342 100.647 120.991C99.8489 121.64 98.8988 122.135 97.7962 122.476C96.6915 122.816 95.4678 122.989 94.123 122.989L94.1209 122.985Z" fill="#064F7C"/>
<path d="M37.3208 141.688V136.183C37.3208 134.857 36.732 134.177 35.6816 134.177C34.6312 134.177 33.988 134.857 33.988 136.183V141.688H31.1898V136.183C31.1898 134.857 30.6009 134.177 29.5505 134.177C28.5001 134.177 27.8569 134.857 27.8569 136.183V141.688H25.0587V131.819H27.8569V133.218C28.5022 132.389 29.348 131.635 30.7659 131.635C32.0543 131.635 33.0295 132.205 33.5453 133.201C34.4098 132.189 35.4414 131.635 36.7862 131.635C38.8661 131.635 40.1191 132.888 40.1191 135.263V141.688H37.3208Z" fill="#064F7C"/>
<path d="M53.5611 137.729H46.6929C46.9686 138.998 47.8519 139.662 49.1048 139.662C50.0445 139.662 50.7253 139.368 51.4979 138.65L53.0996 140.068C52.1787 141.21 50.8527 141.909 49.0672 141.909C46.1019 141.909 43.9114 139.829 43.9114 136.81V136.772C43.9114 133.955 45.9182 131.635 48.7895 131.635C52.0847 131.635 53.5945 134.195 53.5945 136.994V137.031C53.5945 137.307 53.5757 137.474 53.5569 137.731L53.5611 137.729ZM48.7916 133.88C47.6326 133.88 46.8767 134.709 46.6553 135.979H50.8715C50.7065 134.726 49.9693 133.88 48.7916 133.88Z" fill="#064F7C"/>
<path d="M64.6455 141.688V140.27C63.9647 141.191 63.025 141.871 61.5716 141.871C59.2704 141.871 57.0798 140.067 57.0798 136.772V136.734C57.0798 133.439 59.2349 131.635 61.5716 131.635C63.0626 131.635 63.9835 132.316 64.6455 133.107V128.246H67.4437V141.685H64.6455V141.688ZM64.6831 136.734C64.6831 135.095 63.5972 134.009 62.29 134.009C60.9827 134.009 59.8781 135.076 59.8781 136.734V136.772C59.8781 138.411 60.9827 139.497 62.29 139.497C63.5972 139.497 64.6831 138.411 64.6831 136.772V136.734Z" fill="#064F7C"/>
<path d="M71.8436 130.732V128.247H74.7901V130.732H71.8436ZM71.9167 141.687V131.818H74.715V141.687H71.9167Z" fill="#064F7C"/>
<path d="M85.5425 141.687L82.9656 137.655L81.9904 138.686V141.687H79.1921V128.247H81.9904V135.41L85.2668 131.82H88.6184L84.8617 135.704L88.7458 141.687H85.5425Z" fill="#064F7C"/>
<path d="M97.5289 141.687V140.62C96.8481 141.376 95.9084 141.873 94.5469 141.873C92.6884 141.873 91.1598 140.806 91.1598 138.853V138.816C91.1598 136.661 92.7991 135.667 95.1358 135.667C96.1298 135.667 96.8481 135.832 97.5477 136.072V135.907C97.5477 134.748 96.8293 134.103 95.4302 134.103C94.3631 134.103 93.6072 134.305 92.7051 134.637L92.0055 132.501C93.0914 132.023 94.1606 131.709 95.8353 131.709C98.8925 131.709 100.235 133.292 100.235 135.963V141.689H97.5289V141.687ZM97.5832 137.711C97.105 137.49 96.4785 137.344 95.7978 137.344C94.6012 137.344 93.8641 137.822 93.8641 138.705V138.743C93.8641 139.497 94.4905 139.939 95.3926 139.939C96.6999 139.939 97.5832 139.221 97.5832 138.208V137.711Z" fill="#064F7C"/>
<path d="M117.687 13.0469C107.544 2.9043 91.0992 2.9043 80.9546 13.0469L62.647 31.3544L44.3395 13.0469C34.1969 2.9043 17.7521 2.9043 7.60741 13.0469C-2.53515 23.1894 -2.53515 39.6364 7.60741 49.7789C12.1284 54.2999 17.9045 56.8058 23.8142 57.2945C31.1606 57.9042 38.7179 55.4004 44.3395 49.7789L62.647 31.4714L80.9546 49.7789C86.5761 55.4004 94.1334 57.9042 101.48 57.2945C107.39 56.8037 113.164 54.2999 117.687 49.7789C127.829 39.6364 127.829 23.1894 117.687 13.0469Z" fill="#00B1E2"/>
<path d="M62.6469 25.0583L55.3068 17.7182C51.2535 13.6649 51.2535 7.09321 55.3068 3.03995C59.3601 -1.01332 65.9317 -1.01332 69.985 3.03995C74.0383 7.09321 74.0383 13.6649 69.985 17.7182L62.6449 25.0583H62.6469Z" fill="#97D700"/>
<path d="M80.9546 49.7797L62.647 31.4722L44.3395 49.7797C38.7179 55.4013 31.1606 57.905 23.8142 57.2953C24.6119 67.3042 32.9857 75.1768 43.1993 75.1768C51.4624 75.1768 58.5186 70.0252 61.3377 62.7581C59.1325 62.4783 57.0004 61.4968 55.309 59.8033C51.2557 55.75 51.2557 49.1783 55.309 45.125L62.6491 37.7849L69.9893 45.125C74.0425 49.1783 74.0425 55.75 69.9893 59.8033C68.2957 61.4968 66.1636 62.4783 63.9605 62.7581C66.7797 70.0252 73.8358 75.1768 82.0989 75.1768C92.3125 75.1768 100.686 67.3042 101.484 57.2953C94.1376 57.905 86.5803 55.4013 80.9588 49.7797H80.9546Z" fill="#97D700"/>
</svg>
