<svg width="1300" height="1300" viewBox="-300 -350 1300 1300" fill="none" xmlns="http://www.w3.org/2000/svg">
<path d="m494.73 67.023c-3.3086 0.28125-6.3203 2.0117-8.2266 4.7266l-291.2 403.2c-3.625 5.0273-2.4883 12.039 2.5352 15.664 5.0273 3.625 12.039 2.4883 15.664-2.5391l28.875-40.074h354.02c6.1875 0 11.199-5.0156 11.203-11.199v-313.6c-0.003906-6.1836-5.0156-11.199-11.203-11.199h-111.3l19.598-27.125c2.6406-3.543 2.9531-8.3008 0.79688-12.156-2.1523-3.8555-6.3711-6.0859-10.77-5.6953zm-392.18 44.977c-5.7734 0.54297-10.176 5.4023-10.152 11.199v313.6c0.003906 6.1836 5.0156 11.199 11.203 11.199h78.398c2.9961 0.042969 5.8867-1.1172 8.0234-3.2227 2.1328-2.1055 3.3359-4.9805 3.3359-7.9766 0-3-1.2031-5.8711-3.3359-7.9766-2.1367-2.1055-5.0273-3.2656-8.0234-3.2227h-67.199v-46.375c0.23828-0.16797 0.47266-0.34375 0.69922-0.52734l116.9-79.625 32.375 22.227c2.4609 1.6719 5.4844 2.2969 8.4062 1.7383 2.9219-0.55859 5.5-2.2539 7.1719-4.7109 1.6719-2.4609 2.2969-5.4844 1.7383-8.4062s-2.2539-5.5-4.7148-7.1719l-38.676-26.426c-2.1484-1.4766-4.75-2.1602-7.3477-1.9258-1.8867 0.1875-3.6914 0.85156-5.25 1.9258l-111.3 75.949v-217.88h292.95c2.9961 0.042968 5.8867-1.1172 8.0234-3.2227 2.1328-2.1055 3.3359-4.9766 3.3359-7.9766 0-2.9961-1.2031-5.8711-3.3359-7.9766-2.1367-2.1055-5.0273-3.2656-8.0234-3.2227h-304.15c-0.35156-0.015625-0.70312-0.015625-1.0508 0zm366.45 22.398h116.2v182.18l-99.223-84.348c-2.2812-1.9414-5.2461-2.8867-8.2266-2.625-2.2617 0.23047-4.3984 1.1484-6.125 2.625l-133.52 112.17-13.828-9.625zm-231 16.801c-27.703 0-50.398 22.699-50.398 50.402 0 27.699 22.695 50.398 50.398 50.398s50.398-22.699 50.398-50.398c0-27.703-22.695-50.402-50.398-50.402zm0 22.402c15.598 0 28 12.402 28 28 0 15.594-12.402 28-28 28s-28-12.406-28-28c0-15.598 12.402-28 28-28zm240.8 81.723 104.82 89.074c0.48047 0.51562 1.0078 0.98437 1.5742 1.4023v79.801h-326.55l52.5-72.625 21.352 14.523c4.1055 2.8516 9.6055 2.6367 13.477-0.52344z" fill="currentColor"/>
</svg>