<svg width="45" height="45" viewBox="0 0 45 45" fill="none" xmlns="http://www.w3.org/2000/svg">
<rect opacity="0.1" width="45" height="45" rx="22.5" fill="var(--kt-light-primary, #2E3084)"/>
<path fill-rule="evenodd" clip-rule="evenodd" d="M19.0724 25.3114C17.4864 24.3284 16.4234 22.5754 16.4234 20.5754C16.4234 17.5004 18.9244 14.9994 21.9984 14.9994C25.0724 14.9994 27.5724 17.5004 27.5724 20.5754C27.5724 22.5264 26.5634 24.2434 25.0424 25.2404C28.4054 26.3044 31.0034 29.1764 31.6554 32.7474C34.1654 30.2594 35.7214 26.8124 35.7214 23.0004C35.7214 15.4204 29.5774 9.27637 21.9974 9.27637C14.4184 9.27637 8.27344 15.4204 8.27344 23.0004C8.27344 26.9494 9.95044 30.4984 12.6194 33.0004C13.1804 29.3874 15.7314 26.4554 19.0724 25.3114Z" fill="var(--kt-primary, #2E3084)"/>
<path fill-rule="evenodd" clip-rule="evenodd" d="M25.7727 20.5748C25.7727 18.4938 24.0797 16.8008 21.9977 16.8008C19.9167 16.8008 18.2227 18.4938 18.2227 20.5748C18.2227 22.6558 19.9167 24.3488 21.9977 24.3488C24.0797 24.3488 25.7727 22.6558 25.7727 20.5748Z" fill="var(--kt-primary, #2E3084)"/>
<path fill-rule="evenodd" clip-rule="evenodd" d="M30.0017 33.9528C29.7197 29.8238 26.2747 26.5898 22.1597 26.5898C18.0447 26.5898 14.6007 29.8238 14.3187 33.9528C14.3097 34.0788 14.2757 34.1968 14.2227 34.3048C16.4337 35.8278 19.1097 36.7238 21.9977 36.7238C25.0067 36.7238 27.7797 35.7448 30.0417 34.1028C30.0287 34.0528 30.0047 34.0068 30.0017 33.9528Z" fill="var(--kt-primary, #2E3084)"/>
</svg>
