<svg width="104" height="104" viewBox="0 0 104 104" fill="none" xmlns="http://www.w3.org/2000/svg">
<path d="M52 11.375C62.7744 11.375 73.1075 15.6551 80.7262 23.2738C88.3449 30.8925 92.625 41.2256 92.625 52C92.625 62.7744 88.3449 73.1075 80.7262 80.7262C73.1075 88.3449 62.7744 92.625 52 92.625C41.2256 92.625 30.8925 88.3449 23.2738 80.7262C15.6551 73.1075 11.375 62.7744 11.375 52C11.375 41.2256 15.6551 30.8925 23.2738 23.2738C30.8925 15.6551 41.2256 11.375 52 11.375ZM52 102C65.2608 102 77.9785 96.7322 87.3553 87.3553C96.7322 77.9785 102 65.2608 102 52C102 38.7392 96.7322 26.0215 87.3553 16.6447C77.9785 7.26784 65.2608 2 52 2C38.7392 2 26.0215 7.26784 16.6447 16.6447C7.26784 26.0215 2 38.7392 2 52C2 65.2608 7.26784 77.9785 16.6447 87.3553C26.0215 96.7322 38.7392 102 52 102ZM74.0703 42.8203C75.9062 40.9844 75.9062 38.0156 74.0703 36.1992C72.2344 34.3828 69.2656 34.3633 67.4492 36.1992L45.7695 57.8789L36.5898 48.6992C34.7539 46.8633 31.7852 46.8633 29.9687 48.6992C28.1523 50.5352 28.1328 53.5039 29.9687 55.3203L42.4687 67.8203C44.3047 69.6562 47.2734 69.6562 49.0898 67.8203L74.0703 42.8203Z" fill="black"/>
</svg>
