<svg width="104" height="104" viewBox="0 0 104 104" fill="none" xmlns="http://www.w3.org/2000/svg">
<path d="M89.95 21.25L60.25 4.09999C55.4001 1.3 49.4001 1.3 44.5 4.09999L14.8501 21.25C10 24.05 7 29.25 7 34.9V69.1C7 74.7001 10 79.9 14.8501 82.75L44.5501 99.9001C49.4001 102.7 55.4001 102.7 60.3 99.9001L90.0001 82.75C94.8501 79.9501 97.8501 74.75 97.8501 69.1V34.9C97.8 29.25 94.8 24.1 89.95 21.25ZM48.65 30.75C48.65 28.7 50.35 27 52.4001 27C54.4501 27 56.1501 28.7 56.1501 30.75V57C56.1501 59.05 54.4501 60.7501 52.4001 60.7501C50.35 60.7501 48.65 59.05 48.65 57V30.75ZM57.0001 75.1501C56.75 75.7501 56.4001 76.3 55.9501 76.8001C55 77.75 53.7501 78.25 52.4001 78.25C51.7501 78.25 51.1 78.1 50.5 77.8501C49.85 77.6 49.3501 77.2501 48.85 76.8001C48.4 76.3 48.0501 75.7501 47.7501 75.1501C47.5 74.5501 47.4001 73.9 47.4001 73.25C47.4001 71.95 47.9001 70.6501 48.85 69.7C49.3501 69.25 49.85 68.9 50.5 68.65C52.35 67.85 54.55 68.3 55.9501 69.7C56.4001 70.2001 56.75 70.7 57.0001 71.35C57.25 71.95 57.4 72.6001 57.4 73.25C57.4 73.9 57.25 74.5501 57.0001 75.1501Z" fill="black"/>
</svg>
