<svg width="104" height="104" viewBox="0 0 104 104" fill="none" xmlns="http://www.w3.org/2000/svg">
<path d="M52 102C65.2608 102 77.9785 96.7322 87.3553 87.3553C96.7322 77.9785 102 65.2608 102 52C102 38.7392 96.7322 26.0215 87.3553 16.6447C77.9785 7.26784 65.2608 2 52 2C38.7392 2 26.0215 7.26784 16.6447 16.6447C7.26784 26.0215 2 38.7392 2 52C2 65.2608 7.26784 77.9785 16.6447 87.3553C26.0215 96.7322 38.7392 102 52 102ZM44.1875 67.625H48.875V55.125H44.1875C41.5898 55.125 39.5 53.0352 39.5 50.4375C39.5 47.8398 41.5898 45.75 44.1875 45.75H53.5625C56.1602 45.75 58.25 47.8398 58.25 50.4375V67.625H59.8125C62.4102 67.625 64.5 69.7148 64.5 72.3125C64.5 74.9102 62.4102 77 59.8125 77H44.1875C41.5898 77 39.5 74.9102 39.5 72.3125C39.5 69.7148 41.5898 67.625 44.1875 67.625ZM52 27C53.6576 27 55.2473 27.6585 56.4194 28.8306C57.5915 30.0027 58.25 31.5924 58.25 33.25C58.25 34.9076 57.5915 36.4973 56.4194 37.6694C55.2473 38.8415 53.6576 39.5 52 39.5C50.3424 39.5 48.7527 38.8415 47.5806 37.6694C46.4085 36.4973 45.75 34.9076 45.75 33.25C45.75 31.5924 46.4085 30.0027 47.5806 28.8306C48.7527 27.6585 50.3424 27 52 27Z" fill="black"/>
</svg>
