<svg width="104" height="104" viewBox="0 0 104 104" fill="none" xmlns="http://www.w3.org/2000/svg">
<path d="M92.625 52C92.625 41.2256 88.3449 30.8925 80.7262 23.2738C73.1075 15.6551 62.7744 11.375 52 11.375C41.2256 11.375 30.8925 15.6551 23.2738 23.2738C15.6551 30.8925 11.375 41.2256 11.375 52C11.375 62.7744 15.6551 73.1075 23.2738 80.7262C30.8925 88.3449 41.2256 92.625 52 92.625C62.7744 92.625 73.1075 88.3449 80.7262 80.7262C88.3449 73.1075 92.625 62.7744 92.625 52ZM2 52C2 38.7392 7.26784 26.0215 16.6447 16.6447C26.0215 7.26784 38.7392 2 52 2C65.2608 2 77.9785 7.26784 87.3553 16.6447C96.7322 26.0215 102 38.7392 102 52C102 65.2608 96.7322 77.9785 87.3553 87.3553C77.9785 96.7322 65.2608 102 52 102C38.7392 102 26.0215 96.7322 16.6447 87.3553C7.26784 77.9785 2 65.2608 2 52ZM35.1641 34.2852C36.707 29.9297 40.8477 27 45.4766 27H56.8633C63.6797 27 69.1875 32.5273 69.1875 39.3242C69.1875 43.7383 66.8242 47.8203 62.9961 50.0273L56.6875 53.6406C56.6484 56.1797 54.5586 58.25 52 58.25C49.4023 58.25 47.3125 56.1602 47.3125 53.5625V50.9258C47.3125 49.2461 48.2109 47.7031 49.6758 46.8633L58.3281 41.9023C59.2461 41.375 59.8125 40.3984 59.8125 39.3438C59.8125 37.7031 58.4844 36.3945 56.8633 36.3945H45.4766C44.8125 36.3945 44.2266 36.8047 44.0117 37.4297L43.9336 37.6641C43.0742 40.1055 40.3789 41.375 37.957 40.5156C35.5352 39.6562 34.2461 36.9609 35.1055 34.5391L35.1836 34.3047L35.1641 34.2852ZM45.75 70.75C45.75 69.0924 46.4085 67.5027 47.5806 66.3306C48.7527 65.1585 50.3424 64.5 52 64.5C53.6576 64.5 55.2473 65.1585 56.4194 66.3306C57.5915 67.5027 58.25 69.0924 58.25 70.75C58.25 72.4076 57.5915 73.9973 56.4194 75.1694C55.2473 76.3415 53.6576 77 52 77C50.3424 77 48.7527 76.3415 47.5806 75.1694C46.4085 73.9973 45.75 72.4076 45.75 70.75Z" />
</svg>
