<svg width="104" height="104" viewBox="0 0 104 104" fill="none" xmlns="http://www.w3.org/2000/svg">
<path d="M52 11.375C62.7744 11.375 73.1075 15.6551 80.7262 23.2738C88.3449 30.8925 92.625 41.2256 92.625 52C92.625 62.7744 88.3449 73.1075 80.7262 80.7262C73.1075 88.3449 62.7744 92.625 52 92.625C41.2256 92.625 30.8925 88.3449 23.2738 80.7262C15.6551 73.1075 11.375 62.7744 11.375 52C11.375 41.2256 15.6551 30.8925 23.2738 23.2738C30.8925 15.6551 41.2256 11.375 52 11.375ZM52 102C65.2608 102 77.9785 96.7322 87.3553 87.3553C96.7322 77.9785 102 65.2608 102 52C102 38.7392 96.7322 26.0215 87.3553 16.6447C77.9785 7.26784 65.2608 2 52 2C38.7392 2 26.0215 7.26784 16.6447 16.6447C7.26784 26.0215 2 38.7392 2 52C2 65.2608 7.26784 77.9785 16.6447 87.3553C26.0215 96.7322 38.7392 102 52 102ZM36.1797 36.1797C34.3438 38.0156 34.3438 40.9844 36.1797 42.8008L45.3594 51.9805L36.1797 61.1602C34.3438 62.9961 34.3438 65.9648 36.1797 67.7812C38.0156 69.5977 40.9844 69.6172 42.8008 67.7812L51.9805 58.6016L61.1602 67.7812C62.9961 69.6172 65.9648 69.6172 67.7812 67.7812C69.5977 65.9453 69.6172 62.9766 67.7812 61.1602L58.6016 51.9805L67.7812 42.8008C69.6172 40.9648 69.6172 37.9961 67.7812 36.1797C65.9453 34.3633 62.9766 34.3438 61.1602 36.1797L51.9805 45.3594L42.8008 36.1797C40.9648 34.3438 37.9961 34.3438 36.1797 36.1797Z" fill="black"/>
</svg>
