<svg width="104" height="104" viewBox="0 0 104 104" fill="none" xmlns="http://www.w3.org/2000/svg">
<path d="M83.3732 24.1799H81.6398L66.9932 9.53326C65.8232 8.36326 63.9165 8.36326 62.7032 9.53326C61.5332 10.7033 61.5332 12.6099 62.7032 13.8233L73.0598 24.1799H30.9398L41.2965 13.8233C42.4665 12.6533 42.4665 10.7466 41.2965 9.53326C40.1265 8.36326 38.2198 8.36326 37.0065 9.53326L22.4032 24.1799H20.6698C16.7698 24.1799 8.6665 24.1799 8.6665 35.2733C8.6665 39.4766 9.53317 42.2499 11.3532 44.0699C12.3932 45.1533 13.6498 45.7166 14.9932 46.0199C16.2498 46.3233 17.5932 46.3666 18.8932 46.3666H85.1065C86.4498 46.3666 87.7065 46.2799 88.9198 46.0199C92.5598 45.1533 95.3332 42.5533 95.3332 35.2733C95.3332 24.1799 87.2298 24.1799 83.3732 24.1799Z" fill="#D14037"/>
<path d="M82.5499 52H21.1032C18.4165 52 16.3799 54.3833 16.8132 57.0267L20.4532 79.3C21.6665 86.7533 24.9165 95.3333 39.3465 95.3333H63.6565C78.2599 95.3333 80.8599 88.01 82.4199 79.82L86.7965 57.1567C87.3165 54.47 85.2799 52 82.5499 52ZM45.9765 79.95C45.9765 81.64 44.6332 82.9833 42.9865 82.9833C41.2965 82.9833 39.9532 81.64 39.9532 79.95V65.65C39.9532 64.0033 41.2965 62.6167 42.9865 62.6167C44.6332 62.6167 45.9765 64.0033 45.9765 65.65V79.95ZM64.5232 79.95C64.5232 81.64 63.1799 82.9833 61.4899 82.9833C59.8432 82.9833 58.4565 81.64 58.4565 79.95V65.65C58.4565 64.0033 59.8432 62.6167 61.4899 62.6167C63.1799 62.6167 64.5232 64.0033 64.5232 65.65V79.95Z" fill="#D14037"/>
</svg>
