<svg width="28" height="35" viewBox="0 0 28 35" fill="none" xmlns="http://www.w3.org/2000/svg">
<path d="M28 34.7598V30.7598C28 27.4458 25.315 24.7598 22 24.7598H6C2.687 24.7598 0 27.4458 0 30.7598V34.7598H28Z" fill="#3B88C3"/>
<path d="M10 24.7598L14 29.7608L18 24.7598V20.7598H10V24.7598Z" fill="#F7DECE"/>
<path d="M10 22.7598C11.216 24.1338 12.355 24.4788 13.996 24.4788C15.635 24.4788 16.783 24.1328 18 22.7598V18.7598H10V22.7598Z" fill="#EEC2AD"/>
<path d="M7.44206 12.6953C7.44206 14.1433 6.70806 15.3173 5.80306 15.3173C4.89806 15.3173 4.16406 14.1433 4.16406 12.6953C4.16406 11.2473 4.89806 10.0723 5.80306 10.0723C6.70806 10.0713 7.44206 11.2463 7.44206 12.6953ZM23.8311 12.6953C23.8311 14.1433 23.0981 15.3173 22.1921 15.3173C21.2871 15.3173 20.5531 14.1433 20.5531 12.6953C20.5531 11.2473 21.2861 10.0723 22.1921 10.0723C23.0981 10.0713 23.8311 11.2463 23.8311 12.6953Z" fill="#F7DECE"/>
<path d="M5.47656 13.7206C5.47656 8.13161 9.29256 3.59961 13.9996 3.59961C18.7066 3.59961 22.5216 8.13161 22.5216 13.7206C22.5216 19.3096 18.7066 23.8416 13.9996 23.8416C9.29256 23.8406 5.47656 19.3096 5.47656 13.7206Z" fill="#F7DECE"/>
<path d="M13.9994 20.5622C11.2454 20.5622 10.3994 19.8572 10.2584 19.7142C10.0024 19.4582 10.0024 19.0432 10.2584 18.7872C10.5064 18.5392 10.9044 18.5322 11.1604 18.7642C11.2124 18.8012 11.8814 19.2512 13.9994 19.2512C16.1994 19.2512 16.8354 18.7662 16.8414 18.7612C17.0974 18.5062 17.4984 18.5182 17.7544 18.7762C18.0104 19.0322 17.9964 19.4592 17.7404 19.7142C17.5994 19.8572 16.7534 20.5622 13.9994 20.5622Z" fill="#C1694F"/>
<path d="M14.0012 0.240234C19.6492 0.240234 23.1792 4.40823 23.1792 7.88123C23.1792 11.3542 22.4732 12.7442 21.7672 11.3542L20.3552 8.57623C20.3552 8.57623 16.1202 8.57623 14.7082 7.18623C14.7082 7.18623 16.8262 11.3542 12.5902 7.18623C12.5902 7.18623 13.2962 9.96523 9.06022 6.49223C9.06022 6.49223 6.94222 7.88123 6.23622 11.3542C6.04022 12.3182 4.82422 11.3542 4.82422 7.88123C4.82322 4.40823 7.64722 0.240234 14.0012 0.240234Z" fill="#292F33"/>
<path d="M10 13.7598C9.45 13.7598 9 13.3098 9 12.7598V11.7598C9 11.2098 9.45 10.7598 10 10.7598C10.55 10.7598 11 11.2098 11 11.7598V12.7598C11 13.3098 10.55 13.7598 10 13.7598ZM18 13.7598C17.45 13.7598 17 13.3098 17 12.7598V11.7598C17 11.2098 17.45 10.7598 18 10.7598C18.55 10.7598 19 11.2098 19 11.7598V12.7598C19 13.3098 18.55 13.7598 18 13.7598Z" fill="#662113"/>
<path d="M14.75 16.5098H13.25C12.837 16.5098 12.5 16.1728 12.5 15.7598C12.5 15.3468 12.837 15.0098 13.25 15.0098H14.75C15.163 15.0098 15.5 15.3468 15.5 15.7598C15.5 16.1728 15.163 16.5098 14.75 16.5098Z" fill="#C1694F"/>
<path d="M6 31.2598H4C4 27.1658 5.877 22.7598 10 22.7598V24.7598C6.836 24.7598 6 29.0118 6 31.2598ZM23 27.2598H21C21 26.8488 20.479 24.7598 18 24.7598V22.7598C21.533 22.7598 23 25.6908 23 27.2598Z" fill="#292F33"/>
<path d="M5 34.2598C6.65685 34.2598 8 32.9166 8 31.2598C8 29.6029 6.65685 28.2598 5 28.2598C3.34315 28.2598 2 29.6029 2 31.2598C2 32.9166 3.34315 34.2598 5 34.2598Z" fill="#CCD6DD"/>
<path d="M5 33.2598C6.10457 33.2598 7 32.3643 7 31.2598C7 30.1552 6.10457 29.2598 5 29.2598C3.89543 29.2598 3 30.1552 3 31.2598C3 32.3643 3.89543 33.2598 5 33.2598Z" fill="#F5F8FA"/>
<path d="M26 32.7598H24C24 31.9248 23.892 27.7598 21.75 27.7598C19.608 27.7598 19.5 31.9248 19.5 32.7598H17.5C17.5 28.3768 19.089 25.7598 21.75 25.7598C24.411 25.7598 26 28.3768 26 32.7598Z" fill="#292F33"/>
<path d="M18.5 33.7598C19.0523 33.7598 19.5 33.3121 19.5 32.7598C19.5 32.2075 19.0523 31.7598 18.5 31.7598C17.9477 31.7598 17.5 32.2075 17.5 32.7598C17.5 33.3121 17.9477 33.7598 18.5 33.7598Z" fill="#CCD6DD"/>
<path d="M25 33.7598C25.5523 33.7598 26 33.3121 26 32.7598C26 32.2075 25.5523 31.7598 25 31.7598C24.4477 31.7598 24 32.2075 24 32.7598C24 33.3121 24.4477 33.7598 25 33.7598Z" fill="#CCD6DD"/>
</svg>
