<svg width="36" height="36" viewBox="0 0 36 36" fill="none" xmlns="http://www.w3.org/2000/svg">
<path d="M30.0003 22C27.0003 22 23.3123 29.094 23.0003 32C22.5793 35.915 25.0003 36 25.0003 36H36.0003V26C36.0003 26 32.5623 22 30.0003 22Z" fill="#50A5E6"/>
<path d="M28.9916 29.3079C30.6064 26.5108 31.2805 23.8767 30.497 23.4243C29.7136 22.972 27.7693 24.8728 26.1545 27.6699C24.5396 30.4669 23.8656 33.1011 24.649 33.5534C25.4325 34.0057 27.3767 32.1049 28.9916 29.3079Z" fill="#1C6399"/>
<path d="M20.0853 0C21.2663 0 22.2233 0.957 22.2233 2.138C22.2233 2.927 22.8913 12.962 22.8913 12.962L17.9473 18V2.138C17.9473 0.957 18.9043 0 20.0853 0Z" fill="#EEC2AD"/>
<path d="M18.8755 4.32298C18.8755 3.22398 19.7275 2.33398 20.7785 2.33398C21.8295 2.33398 22.6815 3.22498 22.6815 4.32298C22.6815 4.32298 23.2165 10.265 23.8735 13.693C24.7515 15.559 25.2425 18.375 25.1345 19.941C25.1885 20.339 30.7595 24.947 30.7595 24.947C30.4785 26.76 28.5005 31.102 26.0005 33.106L22.4795 30.182C19.5945 29.778 18.0215 26.851 18.0215 25.918C18.0215 22.934 18.8755 4.32298 18.8755 4.32298Z" fill="#F7DECE"/>
<path d="M6 22C9 22 12.688 29.094 13 32C13.421 35.915 11 36 11 36H0V26C0 26 3.438 22 6 22Z" fill="#50A5E6"/>
<path d="M11.3505 33.5522C12.134 33.0999 11.46 30.4658 9.84508 27.6687C8.2302 24.8716 6.28598 22.9709 5.50253 23.4232C4.71909 23.8755 5.3931 26.5096 7.00798 29.3067C8.62286 32.1038 10.5671 34.0045 11.3505 33.5522Z" fill="#1C6399"/>
<path d="M16.0619 0.0109849C14.7959 -0.116015 13.7289 0.874985 13.7289 2.11399C13.7289 2.89399 13.5449 12.433 13.5449 12.433L17.8959 18L17.9579 2.23498C17.9579 1.12898 17.1629 0.120985 16.0619 0.0109849Z" fill="#EEC2AD"/>
<path d="M17.1242 4.32298C17.1242 3.22398 16.2722 2.33398 15.2212 2.33398C14.1702 2.33398 13.3182 3.22498 13.3182 4.32298C13.3182 4.32298 12.7832 10.265 12.1262 13.693C11.2482 15.559 10.7572 18.375 10.8652 19.941C10.8112 20.339 5.24023 24.947 5.24023 24.947C5.52123 26.76 7.49923 31.102 9.99923 33.106L13.5202 30.182C16.4052 29.778 17.9782 26.851 17.9782 25.918C17.9782 22.934 17.1242 4.32298 17.1242 4.32298Z" fill="#F7DECE"/>
<path d="M18 25.824C17.586 25.824 17.25 25.488 17.25 25.074V2.79297C17.25 2.37897 17.586 2.04297 18 2.04297C18.414 2.04297 18.75 2.37897 18.75 2.79297V25.074C18.75 25.488 18.414 25.824 18 25.824Z" fill="#EEC2AD"/>
</svg>
