<svg width="124" height="124" viewBox="0 0 124 124" fill="none" xmlns="http://www.w3.org/2000/svg">
<path d="M62 122C95.1371 122 122 95.1371 122 62C122 28.8629 95.1371 2 62 2C28.8629 2 2 28.8629 2 62C2 95.1371 28.8629 122 62 122Z" fill="#FFCC4D" stroke="#664500" stroke-width="3"/>
<path d="M61.9987 72.0002C49.922 72.0002 41.9087 70.5935 31.9987 68.6668C29.7354 68.2302 25.332 68.6668 25.332 75.3335C25.332 88.6668 40.6487 105.333 61.9987 105.333C83.3454 105.333 98.6654 88.6668 98.6654 75.3335C98.6654 68.6668 94.262 68.2268 91.9987 68.6668C82.0887 70.5935 74.0754 72.0002 61.9987 72.0002Z" fill="#664500"/>
<path d="M32 75.334C32 75.334 42 78.6673 62 78.6673C82 78.6673 92 75.334 92 75.334C92 75.334 85.3333 88.6673 62 88.6673C38.6667 88.6673 32 75.334 32 75.334Z" fill="white"/>
<path d="M42.0013 58.6673C46.6037 58.6673 50.3346 53.444 50.3346 47.0007C50.3346 40.5573 46.6037 35.334 42.0013 35.334C37.3989 35.334 33.668 40.5573 33.668 47.0007C33.668 53.444 37.3989 58.6673 42.0013 58.6673Z" fill="#664500"/>
<path d="M82.0013 58.6673C86.6037 58.6673 90.3346 53.444 90.3346 47.0007C90.3346 40.5573 86.6037 35.334 82.0013 35.334C77.3989 35.334 73.668 40.5573 73.668 47.0007C73.668 53.444 77.3989 58.6673 82.0013 58.6673Z" fill="#664500"/>
</svg>
