<svg width="26" height="35" viewBox="0 0 26 35" fill="none" xmlns="http://www.w3.org/2000/svg">
<path d="M26 34.25V29.75C26 26.436 22.44 24.25 19.125 24.25H7.125C3.812 24.25 0 26.436 0 29.75V34.25H26Z" fill="#3B88C3"/>
<path d="M12.944 2.22852C17.049 2.22852 23.891 4.28152 23.891 13.1755C23.891 22.0715 23.891 24.1235 21.838 24.1235C19.785 24.1235 17.048 22.0705 12.943 22.0705C8.83803 22.0705 6.15803 24.1235 4.04803 24.1235C1.76103 24.1235 1.99503 15.9125 1.99503 13.1755C1.99603 4.28152 8.83903 2.22852 12.944 2.22852Z" fill="#292F33"/>
<path d="M5.5 30.75H3.5C3.5 26.656 5.377 22.25 9.5 22.25V24.25C6.336 24.25 5.5 28.502 5.5 30.75ZM21.5 26.75H19.5C19.5 26.339 18.979 24.25 16.5 24.25V22.25C20.033 22.25 21.5 25.181 21.5 26.75Z" fill="#292F33"/>
<path d="M4.5 33.75C6.15685 33.75 7.5 32.4069 7.5 30.75C7.5 29.0931 6.15685 27.75 4.5 27.75C2.84315 27.75 1.5 29.0931 1.5 30.75C1.5 32.4069 2.84315 33.75 4.5 33.75Z" fill="#CCD6DD"/>
<path d="M4.5 32.75C5.60457 32.75 6.5 31.8546 6.5 30.75C6.5 29.6454 5.60457 28.75 4.5 28.75C3.39543 28.75 2.5 29.6454 2.5 30.75C2.5 31.8546 3.39543 32.75 4.5 32.75Z" fill="#F5F8FA"/>
<path d="M24.5 32.25H22.5C22.5 31.415 22.392 27.25 20.25 27.25C18.108 27.25 18 31.415 18 32.25H16C16 27.867 17.589 25.25 20.25 25.25C22.911 25.25 24.5 27.867 24.5 32.25Z" fill="#292F33"/>
<path d="M17 33.25C17.5523 33.25 18 32.8023 18 32.25C18 31.6977 17.5523 31.25 17 31.25C16.4477 31.25 16 31.6977 16 32.25C16 32.8023 16.4477 33.25 17 33.25Z" fill="#CCD6DD"/>
<path d="M23.5 33.25C24.0523 33.25 24.5 32.8023 24.5 32.25C24.5 31.6977 24.0523 31.25 23.5 31.25C22.9477 31.25 22.5 31.6977 22.5 32.25C22.5 32.8023 22.9477 33.25 23.5 33.25Z" fill="#CCD6DD"/>
<path d="M9.5 20.6582V24.2492L13 29.2492L16.5 24.2492V20.6582H9.5Z" fill="#F7DECE"/>
<path d="M9.5 22.2495C10.523 23.4045 11.612 23.7495 12.99 23.7495C14.369 23.7495 15.477 23.4045 16.5 22.2495V19.3125H9.5V22.2495Z" fill="#EEC2AD"/>
<path d="M4.73438 12.8775C4.73438 7.04345 8.41037 2.31445 12.9454 2.31445C17.4784 2.31445 21.1544 7.04445 21.1544 12.8775C21.1544 18.7105 17.4784 23.1625 12.9454 23.1625C8.41037 23.1625 4.73438 18.7105 4.73438 12.8775Z" fill="#F7DECE"/>
<path d="M12.945 20.7028C11.339 20.7028 10.498 19.9088 10.408 19.8178C10.14 19.5508 10.14 19.1178 10.408 18.8508C10.674 18.5858 11.1 18.5838 11.369 18.8438C11.404 18.8758 11.92 19.3348 12.945 19.3348C13.983 19.3348 14.5 18.8618 14.521 18.8428C14.794 18.5868 15.224 18.5948 15.484 18.8628C15.744 19.1318 15.744 19.5538 15.48 19.8178C15.391 19.9088 14.551 20.7028 12.945 20.7028Z" fill="#DF1F32"/>
<path d="M2.7232 16.159C2.7022 15.159 2.6792 15.935 2.6792 15.694C2.6792 12.272 4.7322 16.188 4.7322 13.751C4.7322 11.312 6.1002 11.068 7.4682 9.7C8.1532 9.015 9.5212 7.674 9.5212 7.674C9.5212 7.674 12.9422 9.741 15.6792 9.741C18.4152 9.741 21.1532 11.116 21.1532 13.853C21.1532 16.589 23.2062 12.269 23.2062 15.69C23.2062 15.934 23.1832 15.159 23.1662 16.159H23.8852C23.8912 14.159 23.8912 14.235 23.8912 12.957C23.8912 4.063 17.0492 0.75 12.9432 0.75C8.8382 0.75 1.9952 4.007 1.9952 12.902C1.9952 13.695 1.9752 14.159 2.0032 16.159H2.7232Z" fill="#292F33"/>
<path d="M9.60772 15.0458C9.14272 15.0458 8.76172 14.6648 8.76172 14.1988V13.3538C8.76172 12.8888 9.14272 12.5078 9.60772 12.5078C10.0737 12.5078 10.4547 12.8888 10.4547 13.3538V14.1988C10.4547 14.6648 10.0737 15.0458 9.60772 15.0458ZM16.3727 15.0458C15.9077 15.0458 15.5267 14.6648 15.5267 14.1988V13.3538C15.5267 12.8888 15.9077 12.5078 16.3727 12.5078C16.8377 12.5078 17.2187 12.8888 17.2187 13.3538V14.1988C17.2187 14.6648 16.8377 15.0458 16.3727 15.0458Z" fill="#662113"/>
<path d="M13.8357 17.6582H12.1457C11.9127 17.6582 11.7227 17.4682 11.7227 17.2352V17.0822C11.7227 16.8492 11.9117 16.6582 12.1457 16.6582H13.8357C14.0687 16.6582 14.2597 16.8482 14.2597 17.0822V17.2352C14.2597 17.4692 14.0687 17.6582 13.8357 17.6582Z" fill="#C1694F"/>
<path d="M6.44206 13.0957C6.44206 14.5437 5.70806 15.7177 4.80306 15.7177C3.89806 15.7177 3.16406 14.5437 3.16406 13.0957C3.16406 11.6477 3.89806 10.4727 4.80306 10.4727C5.70806 10.4727 6.44206 11.6467 6.44206 13.0957ZM22.8311 13.0957C22.8311 14.5437 22.0981 15.7177 21.1921 15.7177C20.2871 15.7177 19.5531 14.5437 19.5531 13.0957C19.5531 11.6477 20.2861 10.4727 21.1921 10.4727C22.0981 10.4727 22.8311 11.6467 22.8311 13.0957Z" fill="#F7DECE"/>
</svg>
