<svg width="35" height="35" viewBox="0 0 35 35" fill="none" xmlns="http://www.w3.org/2000/svg">
<path d="M34.9414 34.197V29.709C34.9414 26.395 31.2564 24.209 27.9414 24.209H15.9414C12.6284 24.209 8.94141 26.395 8.94141 29.709V34.197H34.9414Z" fill="#CCD6DD"/>
<path d="M21.8854 2.2793C25.9894 2.2793 32.8324 4.3323 32.8324 13.2263C32.8324 22.1213 32.8324 24.1743 30.7794 24.1743C28.7264 24.1743 25.9894 22.1213 21.8844 22.1213C17.7794 22.1213 15.0994 24.1743 12.9894 24.1743C10.7024 24.1743 10.9364 15.9633 10.9364 13.2263C10.9364 4.3323 17.7794 2.2793 21.8854 2.2793Z" fill="#292F33"/>
<path d="M18.2695 26.6874C19.7355 27.7514 24.1355 27.7514 25.6015 26.6874V21.0234H18.2695V26.6874Z" fill="#F7DECE"/>
<path d="M18.2656 22.3872C19.2876 23.5432 20.5556 23.8562 21.9336 23.8562C23.3126 23.8562 24.5806 23.5442 25.6036 22.3872V19.4512H18.2656V22.3872Z" fill="#EEC2AD"/>
<path d="M13.6758 12.9263C13.6758 7.09228 17.3518 2.36328 21.8868 2.36328C26.4198 2.36328 30.0958 7.09328 30.0958 12.9263C30.0958 18.7593 26.4198 23.2103 21.8868 23.2103C17.3528 23.2113 13.6758 18.7593 13.6758 12.9263Z" fill="#F7DECE"/>
<path d="M21.8864 20.7525C20.2804 20.7525 19.4394 19.9575 19.3494 19.8675C19.0814 19.5995 19.0814 19.1665 19.3494 18.9005C19.6154 18.6345 20.0414 18.6325 20.3104 18.8925C20.3454 18.9255 20.8614 19.3845 21.8864 19.3845C22.9244 19.3845 23.4414 18.9115 23.4624 18.8925C23.7354 18.6365 24.1654 18.6445 24.4254 18.9125C24.6854 19.1805 24.6854 19.6035 24.4214 19.8675C24.3314 19.9575 23.4914 20.7525 21.8864 20.7525Z" fill="#DF1F32"/>
<path d="M11.6675 16.2098C11.6465 15.2098 11.6235 15.9858 11.6235 15.7448C11.6235 12.3228 13.6765 16.2388 13.6765 13.8018C13.6765 11.3628 15.0445 11.1188 16.4125 9.75078C17.0975 9.06678 18.4655 7.72478 18.4655 7.72478C18.4655 7.72478 21.8865 9.79178 24.6235 9.79178C27.3595 9.79178 30.0975 11.1668 30.0975 13.9038C30.0975 16.6398 32.1505 12.3198 32.1505 15.7408C32.1505 15.9848 32.1285 15.2098 32.1105 16.2098H32.8295C32.8355 14.2098 32.8355 14.2858 32.8355 13.0078C32.8355 4.11278 25.9935 0.800781 21.8875 0.800781C17.7835 0.800781 10.9405 4.05778 10.9405 12.9528C10.9405 13.7458 10.9205 14.2098 10.9485 16.2098H11.6675Z" fill="#292F33"/>
<path d="M15.3874 13.1445C15.3874 14.5925 14.6534 15.7665 13.7484 15.7665C12.8434 15.7665 12.1094 14.5925 12.1094 13.1445C12.1094 11.6965 12.8434 10.5215 13.7484 10.5215C14.6534 10.5215 15.3874 11.6965 15.3874 13.1445ZM31.7754 13.1445C31.7754 14.5925 31.0424 15.7665 30.1364 15.7665C29.2314 15.7665 28.4974 14.5925 28.4974 13.1445C28.4974 11.6965 29.2304 10.5215 30.1364 10.5215C31.0424 10.5215 31.7754 11.6965 31.7754 13.1445Z" fill="#F7DECE"/>
<path d="M18.5491 15.0966C18.0841 15.0966 17.7031 14.7156 17.7031 14.2496V13.4046C17.7031 12.9396 18.0841 12.5586 18.5491 12.5586C19.0151 12.5586 19.3961 12.9396 19.3961 13.4046V14.2496C19.3951 14.7166 19.0151 15.0966 18.5491 15.0966ZM25.3141 15.0966C24.8491 15.0966 24.4681 14.7156 24.4681 14.2496V13.4046C24.4681 12.9396 24.8491 12.5586 25.3141 12.5586C25.7791 12.5586 26.1601 12.9396 26.1601 13.4046V14.2496C26.1591 14.7166 25.7781 15.0966 25.3141 15.0966Z" fill="#662113"/>
<path d="M22.7771 17.709H21.0871C20.8541 17.709 20.6641 17.52 20.6641 17.285V17.133C20.6641 16.899 20.8531 16.709 21.0871 16.709H22.7771C23.0101 16.709 23.2011 16.899 23.2011 17.133V17.285C23.2011 17.519 23.0111 17.709 22.7771 17.709Z" fill="#C1694F"/>
<path d="M19.0004 34.1975L17.9414 24.9785C17.9414 24.9785 19.3514 26.6235 21.9414 26.6235C24.5314 26.6235 26.1604 24.9785 26.1604 24.9785L24.9384 34.1975H19.0004Z" fill="#66757F"/>
<path d="M17.9415 23.4477C18.5085 24.0137 20.8605 34.1977 20.8605 34.1977H17.7045L16.0005 31.6357L17.7045 28.8007L15.6875 28.1667L15.9415 24.2097C15.9415 24.2097 17.6705 23.1767 17.9415 23.4477ZM25.9355 23.4477C25.3685 24.0137 23.0165 34.1977 23.0165 34.1977H26.1725L27.8765 31.6357L26.1725 28.8007L28.1895 28.1667L27.9355 24.2097C27.9355 24.2097 26.2055 23.1767 25.9355 23.4477Z" fill="#F5F8FA"/>
<path opacity="0.4" d="M14.7539 10.9473H29.2539V16.1973H14.7539V10.9473Z" fill="white"/>
<path d="M29 10.1973H15C14 10.1973 14 11.1973 14 11.1973V15.1973C14 16.6583 16.333 17.1973 18 17.1973C19.667 17.1973 20.599 16.1973 22 16.1973C23.401 16.1973 24.333 17.1973 26 17.1973C27.667 17.1973 30 16.6583 30 15.1973V11.1973C30 10.1963 29 10.1973 29 10.1973ZM29 14.1973C29 15.5223 28.148 16.1973 26 16.1973C24.461 16.1973 23.196 15.1973 22 15.1973C20.804 15.1973 19.539 16.1973 18 16.1973C15.852 16.1973 15 15.5223 15 14.1973V11.1973H29V14.1973Z" fill="#F5F8FA"/>
<path d="M7 10.1973C7.55228 10.1973 8 9.74955 8 9.19727C8 8.64498 7.55228 8.19727 7 8.19727C6.44772 8.19727 6 8.64498 6 9.19727C6 9.74955 6.44772 10.1973 7 10.1973Z" fill="#9266CC"/>
<path d="M9 15.1973C9.55228 15.1973 10 14.7496 10 14.1973C10 13.645 9.55228 13.1973 9 13.1973C8.44772 13.1973 8 13.645 8 14.1973C8 14.7496 8.44772 15.1973 9 15.1973Z" fill="#9266CC"/>
<path d="M5.5 14.1973C6.32843 14.1973 7 13.5257 7 12.6973C7 11.8688 6.32843 11.1973 5.5 11.1973C4.67157 11.1973 4 11.8688 4 12.6973C4 13.5257 4.67157 14.1973 5.5 14.1973Z" fill="#9266CC"/>
<path d="M10 16.1973H5C5 16.1973 3 16.1973 3 18.1973C3 20.1973 5 20.1973 5 20.1973V25.1973L1 30.1973C0.117 31.3013 0 32.0183 0 32.1973C0 34.1973 2 34.1973 2 34.1973H13C13 34.1973 15 34.1973 15 32.1973C15 32.0633 15.153 31.6383 14 30.1973L10 25.1973V20.1973C10 20.1973 12 20.1973 12 18.1973C12 16.1973 10 16.1973 10 16.1973Z" fill="#A8BCCC"/>
<path d="M9 25.5483V19.1973H10C10.449 19.1853 11 19.0033 11 18.1973C11 17.3943 10.453 17.2103 9.992 17.1973H5C4.55 17.2093 4 17.3913 4 18.1973C4 19.0033 4.55 19.1853 5.012 19.1973L5.987 19.2213L6 25.5483L4.106 27.9163L7.5 31.4163L10.894 27.9163L9 25.5483Z" fill="#E1E8ED"/>
<path d="M1 32.231C1.001 33.003 1.551 33.185 2.013 33.197H13.001C13.45 33.185 14.001 33.003 14.001 32.197V32.156L14.007 32.074C14.007 32.071 13.952 31.737 13.22 30.822L10.895 27.916H4.107L1.782 30.822C1.063 31.721 1 32.226 1 32.231Z" fill="#9266CC"/>
</svg>
